<svg width="287" height="56" viewBox="0 0 287 56" fill="none" xmlns="http://www.w3.org/2000/svg">
<rect width="287" height="56" rx="28" fill="#F8F8F8"/>
<path d="M32.5434 34H34.1114C34.2234 34 34.3034 33.92 34.3034 33.808V24.752C34.3034 24.688 34.3514 24.656 34.3994 24.656H38.2874C38.3514 24.656 38.3834 24.704 38.3834 24.752V33.808C38.3834 33.92 38.4634 34 38.5754 34H40.1594C40.2714 34 40.3514 33.92 40.3514 33.808V22.992C40.3514 22.88 40.2714 22.8 40.1594 22.8H32.5434C32.4314 22.8 32.3514 22.88 32.3514 22.992V33.808C32.3514 33.92 32.4314 34 32.5434 34ZM45.9097 34.224C46.9017 34.224 47.9417 33.84 48.8057 33.072C48.9017 32.976 48.9177 32.88 48.8377 32.784L48.0217 31.776C47.9417 31.664 47.8457 31.648 47.7497 31.744C47.2697 32.224 46.6457 32.512 45.9097 32.512C44.9497 32.512 44.1817 31.936 43.9577 30.896C43.9257 30.736 43.9897 30.672 44.1017 30.672H49.2377C49.3337 30.672 49.3977 30.608 49.4137 30.496C49.4297 30.352 49.4457 30.176 49.4457 30.064C49.4457 27.84 47.8777 26.16 45.6857 26.16C43.6377 26.16 41.9737 27.776 41.9737 30.176C41.9737 32.688 43.7017 34.224 45.9097 34.224ZM47.2377 29.296H44.1817C44.0217 29.296 43.9897 29.232 44.0377 29.104C44.2777 28.352 44.8857 27.872 45.6857 27.872C46.5337 27.872 47.1097 28.32 47.3497 29.088C47.3977 29.232 47.3657 29.296 47.2377 29.296ZM52.8577 36.96V33.568C52.8577 33.488 52.9057 33.44 53.0177 33.536C53.4817 33.968 54.1697 34.224 55.0497 34.224C57.1617 34.224 58.7137 32.608 58.7137 30.208C58.7137 27.776 57.1617 26.16 55.0497 26.16C54.1217 26.16 53.4017 26.464 52.9217 26.96C52.8417 27.04 52.7777 27.024 52.7777 26.928V26.576C52.7777 26.464 52.6977 26.384 52.5857 26.384H51.1457C51.0337 26.384 50.9537 26.464 50.9537 26.576V36.96C50.9537 37.072 51.0337 37.152 51.1457 37.152H52.6657C52.7777 37.152 52.8577 37.072 52.8577 36.96ZM54.6497 32.528C53.8657 32.528 53.2417 32.144 52.9377 31.616C52.8737 31.504 52.8577 31.408 52.8577 31.312V29.072C52.8577 28.976 52.8737 28.88 52.9377 28.768C53.2417 28.24 53.8657 27.856 54.6497 27.856C55.9777 27.856 56.7777 28.816 56.7777 30.192C56.7777 31.568 55.9777 32.528 54.6497 32.528ZM63.7534 34.224C64.7454 34.224 65.7854 33.84 66.6494 33.072C66.7454 32.976 66.7614 32.88 66.6814 32.784L65.8654 31.776C65.7854 31.664 65.6894 31.648 65.5934 31.744C65.1134 32.224 64.4894 32.512 63.7534 32.512C62.7934 32.512 62.0254 31.936 61.8014 30.896C61.7694 30.736 61.8334 30.672 61.9454 30.672H67.0814C67.1774 30.672 67.2414 30.608 67.2574 30.496C67.2734 30.352 67.2894 30.176 67.2894 30.064C67.2894 27.84 65.7214 26.16 63.5294 26.16C61.4814 26.16 59.8174 27.776 59.8174 30.176C59.8174 32.688 61.5454 34.224 63.7534 34.224ZM65.0814 29.296H62.0254C61.8654 29.296 61.8334 29.232 61.8814 29.104C62.1214 28.352 62.7294 27.872 63.5294 27.872C64.3774 27.872 64.9534 28.32 65.1934 29.088C65.2414 29.232 65.2094 29.296 65.0814 29.296ZM72.7494 22.784C72.7494 23.248 72.4774 23.6 72.0134 23.6C71.5174 23.6 71.2614 23.248 71.2614 22.784C71.2614 22.656 71.1654 22.608 71.0694 22.608H69.8214C69.7254 22.608 69.6454 22.656 69.6454 22.784C69.6454 24.208 70.6214 25.136 72.0134 25.136C73.3734 25.136 74.3654 24.208 74.3654 22.784C74.3654 22.656 74.2854 22.608 74.1894 22.608H72.9414C72.8294 22.608 72.7494 22.656 72.7494 22.784ZM69.0054 34H70.5574C70.7174 34 70.8134 33.952 70.8934 33.792L73.2454 29.504C73.2934 29.408 73.3574 29.44 73.3574 29.536V33.808C73.3574 33.92 73.4374 34 73.5494 34H75.0374C75.1494 34 75.2294 33.92 75.2294 33.808V26.576C75.2294 26.464 75.1494 26.384 75.0374 26.384H73.4854C73.3254 26.384 73.2294 26.432 73.1334 26.592L70.7814 30.88C70.7334 30.976 70.6694 30.944 70.6694 30.848V26.576C70.6694 26.464 70.5894 26.384 70.4774 26.384H69.0054C68.8934 26.384 68.8134 26.464 68.8134 26.576V33.808C68.8134 33.92 68.8934 34 69.0054 34ZM80.5778 33.808V28.192C80.5778 28.128 80.6098 28.096 80.6738 28.096H82.5778C82.6898 28.096 82.7698 28.016 82.7698 27.904V26.576C82.7698 26.464 82.6898 26.384 82.5778 26.384H76.6898C76.5778 26.384 76.4978 26.464 76.4978 26.576V27.904C76.4978 28.016 76.5778 28.096 76.6898 28.096H78.5778C78.6418 28.096 78.6738 28.128 78.6738 28.192V33.808C78.6738 33.92 78.7538 34 78.8658 34H80.3858C80.4978 34 80.5778 33.92 80.5778 33.808ZM84.2242 34H85.7762C85.9362 34 86.0322 33.952 86.1122 33.792L88.4642 29.504C88.5122 29.408 88.5762 29.44 88.5762 29.536V33.808C88.5762 33.92 88.6562 34 88.7682 34H90.2562C90.3682 34 90.4482 33.92 90.4482 33.808V26.576C90.4482 26.464 90.3682 26.384 90.2562 26.384H88.7042C88.5442 26.384 88.4482 26.432 88.3522 26.592L86.0002 30.88C85.9522 30.976 85.8882 30.944 85.8882 30.848V26.576C85.8882 26.464 85.8082 26.384 85.6962 26.384H84.2242C84.1122 26.384 84.0322 26.464 84.0322 26.576V33.808C84.0322 33.92 84.1122 34 84.2242 34ZM97.7639 33.808V31.088C97.7639 31.024 97.7959 30.992 97.8599 30.992H100.068C100.132 30.992 100.164 31.024 100.164 31.088V33.808C100.164 33.92 100.244 34 100.356 34H101.876C101.988 34 102.068 33.92 102.068 33.808V26.576C102.068 26.464 101.988 26.384 101.876 26.384H100.356C100.244 26.384 100.164 26.464 100.164 26.576V29.184C100.164 29.248 100.132 29.28 100.068 29.28H97.8599C97.7959 29.28 97.7639 29.248 97.7639 29.184V26.576C97.7639 26.464 97.6839 26.384 97.5719 26.384H96.0679C95.9559 26.384 95.8759 26.464 95.8759 26.576V33.808C95.8759 33.92 95.9559 34 96.0679 34H97.5719C97.6839 34 97.7639 33.92 97.7639 33.808ZM107.31 34.24C108.254 34.24 108.974 33.92 109.486 33.408C109.55 33.344 109.598 33.376 109.598 33.456V33.808C109.598 33.92 109.678 34 109.79 34H111.214C111.326 34 111.406 33.92 111.406 33.808V26.576C111.406 26.464 111.326 26.384 111.214 26.384H109.79C109.678 26.384 109.598 26.464 109.598 26.576V26.928C109.598 27.008 109.55 27.04 109.486 26.976C108.974 26.464 108.254 26.144 107.31 26.144C105.214 26.144 103.646 27.776 103.646 30.192C103.646 32.608 105.214 34.24 107.31 34.24ZM107.71 32.528C106.382 32.528 105.582 31.568 105.582 30.192C105.582 28.816 106.382 27.856 107.71 27.856C108.494 27.856 109.118 28.24 109.422 28.768C109.486 28.88 109.502 28.944 109.502 29.04V31.344C109.502 31.44 109.486 31.504 109.422 31.616C109.118 32.144 108.494 32.528 107.71 32.528ZM116.349 30.176C116.349 32.56 117.885 34.208 120.221 34.208C121.533 34.208 122.877 33.664 123.453 32.32C123.501 32.208 123.469 32.128 123.357 32.064L122.125 31.424C122.013 31.36 121.917 31.408 121.853 31.52C121.501 32.128 120.989 32.432 120.221 32.432C119.005 32.432 118.285 31.488 118.285 30.176C118.285 28.864 119.005 27.92 120.221 27.92C120.989 27.92 121.501 28.224 121.853 28.832C121.917 28.944 122.013 28.992 122.125 28.928L123.357 28.288C123.469 28.224 123.501 28.144 123.453 28.032C122.877 26.688 121.533 26.144 120.221 26.144C117.885 26.144 116.349 27.792 116.349 30.176ZM128.153 34.24C129.097 34.24 129.817 33.92 130.329 33.408C130.393 33.344 130.441 33.376 130.441 33.456V33.808C130.441 33.92 130.521 34 130.633 34H132.057C132.169 34 132.249 33.92 132.249 33.808V26.576C132.249 26.464 132.169 26.384 132.057 26.384H130.633C130.521 26.384 130.441 26.464 130.441 26.576V26.928C130.441 27.008 130.393 27.04 130.329 26.976C129.817 26.464 129.097 26.144 128.153 26.144C126.057 26.144 124.489 27.776 124.489 30.192C124.489 32.608 126.057 34.24 128.153 34.24ZM128.553 32.528C127.225 32.528 126.425 31.568 126.425 30.192C126.425 28.816 127.225 27.856 128.553 27.856C129.337 27.856 129.961 28.24 130.265 28.768C130.329 28.88 130.345 28.944 130.345 29.04V31.344C130.345 31.44 130.329 31.504 130.265 31.616C129.961 32.144 129.337 32.528 128.553 32.528ZM138.265 22.784C138.265 23.248 137.993 23.6 137.529 23.6C137.033 23.6 136.777 23.248 136.777 22.784C136.777 22.656 136.681 22.608 136.585 22.608H135.337C135.241 22.608 135.161 22.656 135.161 22.784C135.161 24.208 136.137 25.136 137.529 25.136C138.889 25.136 139.881 24.208 139.881 22.784C139.881 22.656 139.801 22.608 139.705 22.608H138.457C138.345 22.608 138.265 22.656 138.265 22.784ZM134.521 34H136.073C136.233 34 136.329 33.952 136.409 33.792L138.761 29.504C138.809 29.408 138.873 29.44 138.873 29.536V33.808C138.873 33.92 138.953 34 139.065 34H140.553C140.665 34 140.745 33.92 140.745 33.808V26.576C140.745 26.464 140.665 26.384 140.553 26.384H139.001C138.841 26.384 138.745 26.432 138.649 26.592L136.297 30.88C136.249 30.976 136.185 30.944 136.185 30.848V26.576C136.185 26.464 136.105 26.384 135.993 26.384H134.521C134.409 26.384 134.329 26.464 134.329 26.576V33.808C134.329 33.92 134.409 34 134.521 34ZM146.093 33.808V28.192C146.093 28.128 146.125 28.096 146.189 28.096H148.093C148.205 28.096 148.285 28.016 148.285 27.904V26.576C148.285 26.464 148.205 26.384 148.093 26.384H142.205C142.093 26.384 142.013 26.464 142.013 26.576V27.904C142.013 28.016 142.093 28.096 142.205 28.096H144.093C144.157 28.096 144.189 28.128 144.189 28.192V33.808C144.189 33.92 144.269 34 144.381 34H145.901C146.013 34 146.093 33.92 146.093 33.808ZM156.163 22.8H153.043C152.931 22.8 152.851 22.88 152.851 22.992V33.808C152.851 33.92 152.931 34 153.043 34H154.611C154.723 34 154.803 33.92 154.803 33.808V31.056C154.803 30.992 154.835 30.96 154.899 30.96H156.163C158.707 30.96 160.419 29.36 160.419 26.88C160.419 24.4 158.707 22.8 156.163 22.8ZM154.803 29.008V24.752C154.803 24.688 154.851 24.656 154.899 24.656H156.003C157.539 24.656 158.371 25.472 158.371 26.88C158.371 28.288 157.539 29.104 156.003 29.104H154.899C154.835 29.104 154.803 29.072 154.803 29.008ZM165.435 26.144C164.603 26.144 163.947 26.544 163.515 27.008C163.451 27.072 163.387 27.04 163.387 26.928V26.576C163.387 26.464 163.307 26.384 163.195 26.384H161.755C161.643 26.384 161.563 26.464 161.563 26.576V33.808C161.563 33.92 161.643 34 161.755 34H163.275C163.387 34 163.467 33.92 163.467 33.808V28.976C163.467 28.816 163.515 28.688 163.643 28.576C163.995 28.24 164.491 28 165.115 28C165.259 28 165.435 28.016 165.611 28.048C165.739 28.064 165.819 28 165.819 27.872V26.368C165.819 26.256 165.771 26.176 165.659 26.16C165.579 26.144 165.499 26.144 165.435 26.144ZM170.332 34.208C172.652 34.208 174.316 32.384 174.316 30.176C174.316 27.968 172.652 26.144 170.332 26.144C168.012 26.144 166.348 27.968 166.348 30.176C166.348 32.384 168.012 34.208 170.332 34.208ZM170.332 32.432C169.084 32.432 168.284 31.392 168.284 30.176C168.284 28.96 169.084 27.92 170.332 27.92C171.58 27.92 172.38 28.96 172.38 30.176C172.38 31.392 171.58 32.432 170.332 32.432ZM181.141 34.304C183.301 34.304 185.141 33.28 186.053 31.584C186.101 31.488 186.085 31.408 185.989 31.344L184.645 30.432C184.549 30.368 184.437 30.384 184.373 30.496C183.733 31.696 182.581 32.352 181.141 32.352C178.949 32.352 177.493 30.72 177.493 28.4C177.493 26.08 178.949 24.448 181.141 24.448C182.581 24.448 183.733 25.104 184.373 26.304C184.437 26.416 184.549 26.432 184.645 26.368L185.989 25.456C186.085 25.392 186.101 25.312 186.053 25.216C185.141 23.52 183.301 22.496 181.141 22.496C177.893 22.496 175.429 24.88 175.429 28.4C175.429 31.92 177.893 34.304 181.141 34.304ZM189.42 33.808V28.928C189.42 28.768 189.452 28.656 189.548 28.528C189.788 28.144 190.188 27.856 190.7 27.856C191.468 27.856 191.884 28.352 191.884 29.216V33.808C191.884 33.92 191.964 34 192.076 34H193.596C193.708 34 193.788 33.92 193.788 33.808V28.96C193.788 27.296 192.892 26.144 191.276 26.144C190.572 26.144 189.98 26.464 189.548 26.848C189.484 26.912 189.42 26.896 189.42 26.8V22.608C189.42 22.496 189.34 22.416 189.228 22.416H187.708C187.596 22.416 187.516 22.496 187.516 22.608V33.808C187.516 33.92 187.596 34 187.708 34H189.228C189.34 34 189.42 33.92 189.42 33.808ZM198.95 34.24C199.894 34.24 200.614 33.92 201.126 33.408C201.19 33.344 201.238 33.376 201.238 33.456V33.808C201.238 33.92 201.318 34 201.43 34H202.854C202.966 34 203.046 33.92 203.046 33.808V26.576C203.046 26.464 202.966 26.384 202.854 26.384H201.43C201.318 26.384 201.238 26.464 201.238 26.576V26.928C201.238 27.008 201.19 27.04 201.126 26.976C200.614 26.464 199.894 26.144 198.95 26.144C196.854 26.144 195.286 27.776 195.286 30.192C195.286 32.608 196.854 34.24 198.95 34.24ZM199.35 32.528C198.022 32.528 197.222 31.568 197.222 30.192C197.222 28.816 198.022 27.856 199.35 27.856C200.134 27.856 200.758 28.24 201.062 28.768C201.126 28.88 201.142 28.944 201.142 29.04V31.344C201.142 31.44 201.126 31.504 201.062 31.616C200.758 32.144 200.134 32.528 199.35 32.528ZM208.982 26.144C208.15 26.144 207.494 26.544 207.062 27.008C206.998 27.072 206.934 27.04 206.934 26.928V26.576C206.934 26.464 206.854 26.384 206.742 26.384H205.302C205.19 26.384 205.11 26.464 205.11 26.576V33.808C205.11 33.92 205.19 34 205.302 34H206.822C206.934 34 207.014 33.92 207.014 33.808V28.976C207.014 28.816 207.062 28.688 207.19 28.576C207.542 28.24 208.038 28 208.662 28C208.806 28 208.982 28.016 209.158 28.048C209.286 28.064 209.366 28 209.366 27.872V26.368C209.366 26.256 209.318 26.176 209.206 26.16C209.126 26.144 209.046 26.144 208.982 26.144ZM211.586 25.056C212.21 25.056 212.754 24.512 212.754 23.856C212.754 23.232 212.21 22.672 211.586 22.672C210.946 22.672 210.402 23.216 210.402 23.856C210.402 24.512 210.946 25.056 211.586 25.056ZM210.802 34H212.338C212.45 34 212.53 33.92 212.53 33.808V26.576C212.53 26.464 212.45 26.384 212.338 26.384H210.802C210.69 26.384 210.626 26.464 210.626 26.576V33.808C210.626 33.92 210.69 34 210.802 34ZM215.074 23.92V26.288C215.074 26.352 215.042 26.384 214.978 26.384H214.242C214.13 26.384 214.05 26.464 214.05 26.576V27.84C214.05 27.952 214.13 28.032 214.242 28.032H214.978C215.042 28.032 215.074 28.08 215.074 28.128V33.808C215.074 33.92 215.154 34 215.266 34H216.786C216.898 34 216.978 33.92 216.978 33.808V28.128C216.978 28.064 217.01 28.032 217.074 28.032H217.81C217.922 28.032 218.002 27.952 218.002 27.84V26.576C218.002 26.464 217.922 26.384 217.81 26.384H217.074C217.01 26.384 216.978 26.352 216.978 26.288V23.312C216.978 23.168 216.882 23.104 216.754 23.152L215.234 23.712C215.122 23.76 215.074 23.808 215.074 23.92ZM223.74 26.528L222.316 31.072C222.284 31.168 222.22 31.168 222.188 31.072L220.764 26.528C220.732 26.432 220.652 26.384 220.54 26.384H218.876C218.748 26.384 218.684 26.464 218.732 26.592L221.164 33.6C221.212 33.76 221.212 33.872 221.164 34.016L220.124 36.928C220.076 37.072 220.14 37.152 220.268 37.152H221.916C222.012 37.152 222.076 37.104 222.108 37.008L225.772 26.592C225.82 26.464 225.756 26.384 225.628 26.384H223.964C223.852 26.384 223.772 26.432 223.74 26.528Z" fill="black"/>
<path d="M241.587 33.3491C241.328 33.6082 240.909 33.6086 240.65 33.35C240.392 33.0914 240.392 32.672 240.651 32.4139L250.693 22.4111L251.589 23.3074L241.587 33.3491Z" fill="black"/>
<path d="M251.834 30.1072C251.834 30.4898 251.524 30.7998 251.141 30.7998C250.759 30.7998 250.448 30.4898 250.448 30.1072V24.7597C250.448 24.0925 249.908 23.5517 249.24 23.5517H243.893C243.51 23.5517 243.2 23.2416 243.2 22.8591C243.2 22.4766 243.51 22.1665 243.893 22.1665H250.395C251.189 22.1665 251.834 22.8107 251.834 23.6054V30.1072Z" fill="black"/>
</svg>
