<svg width="73" height="28" viewBox="0 0 73 28" fill="none" xmlns="http://www.w3.org/2000/svg">
<path d="M34.1097 13.6194V21.8744H31.4722V1.48926H38.4643C40.2364 1.48926 41.7475 2.07598 42.9838 3.24942C44.2476 4.42286 44.8795 5.85556 44.8795 7.54749C44.8795 9.28037 44.2476 10.7131 42.9838 11.8729C41.7612 13.0326 40.2501 13.6057 38.4643 13.6057H34.1097V13.6194ZM34.1097 3.99988V11.1087H38.5193C39.5633 11.1087 40.4425 10.754 41.1293 10.0581C41.8299 9.36223 42.187 8.51626 42.187 7.56114C42.187 6.61965 41.8299 5.78733 41.1293 5.09145C40.4425 4.36829 39.577 4.01352 38.5193 4.01352H34.1097V3.99988Z" fill="white"/>
<path d="M51.7752 7.46582C53.7258 7.46582 55.2644 7.98432 56.3908 9.02131C57.5173 10.0583 58.0805 11.4774 58.0805 13.2785V21.8746H55.5666V19.9371H55.4567C54.3715 21.5335 52.9153 22.3249 51.1021 22.3249C49.5498 22.3249 48.2585 21.8746 47.2145 20.9604C46.1704 20.0462 45.6484 18.9137 45.6484 17.5492C45.6484 16.1029 46.1979 14.9567 47.2969 14.1108C48.3958 13.2512 49.8657 12.8282 51.6927 12.8282C53.2588 12.8282 54.5501 13.1147 55.5529 13.6878V13.0874C55.5529 12.1732 55.1957 11.4091 54.4676 10.7678C53.7396 10.1265 52.8879 9.8127 51.9125 9.8127C50.4427 9.8127 49.275 10.4267 48.4233 11.6684L46.1018 10.222C47.3793 8.38001 49.275 7.46582 51.7752 7.46582ZM48.3684 17.5902C48.3684 18.2724 48.6569 18.8455 49.2475 19.2958C49.8245 19.746 50.5114 19.978 51.2944 19.978C52.4071 19.978 53.3961 19.5686 54.2616 18.75C55.127 17.9313 55.5666 16.9762 55.5666 15.8709C54.7424 15.2296 53.6022 14.9022 52.1323 14.9022C51.0608 14.9022 50.1679 15.1614 49.4536 15.6663C48.7255 16.1984 48.3684 16.8397 48.3684 17.5902Z" fill="white"/>
<path d="M72.4216 7.91602L63.6299 28.001H60.9099L64.1794 20.974L58.3823 7.91602H61.2534L65.4294 17.9312H65.4844L69.5505 7.91602H72.4216Z" fill="white"/>
<path d="M23.6196 11.9515C23.6196 11.0974 23.5427 10.2801 23.3998 9.49414H12.3442V13.9969L18.7114 13.9982C18.4531 15.4964 17.622 16.7736 16.3486 17.625V20.5463H20.1386C22.3517 18.5119 23.6196 15.5046 23.6196 11.9515Z" fill="#4285F4"/>
<path d="M16.3506 17.6264C15.2956 18.3332 13.937 18.7466 12.3476 18.7466C9.27742 18.7466 6.67287 16.6917 5.74013 13.9219H1.83057V16.9346C3.76749 20.7524 7.74848 23.3722 12.3476 23.3722C15.5264 23.3722 18.1969 22.3338 20.1407 20.5464L16.3506 17.6264Z" fill="#34A853"/>
<path d="M5.37098 11.6856C5.37098 10.9079 5.50148 10.1561 5.73913 9.44927V6.43652H1.82957C1.0287 8.01521 0.578125 9.79721 0.578125 11.6856C0.578125 13.5741 1.03007 15.356 1.82957 16.9347L5.73913 13.922C5.50148 13.2152 5.37098 12.4634 5.37098 11.6856Z" fill="#FABB05"/>
<path d="M12.3476 4.62554C14.0826 4.62554 15.6363 5.21909 16.863 6.37888L20.2217 3.04549C18.1818 1.15843 15.5223 0 12.3476 0C7.74986 0 3.76749 2.61978 1.83057 6.43755L5.74013 9.4503C6.67287 6.68043 9.27742 4.62554 12.3476 4.62554Z" fill="#E94235"/>
</svg>
