<svg width="32" height="32" viewBox="0 0 32 32" fill="none" xmlns="http://www.w3.org/2000/svg">
<path d="M15.5075 28H16.5069C21.9318 28 24.6448 28 26.3296 26.3152C28.0144 24.6304 28 21.9184 28 16.5069V15.4931C28 10.0826 28 7.36961 26.3296 5.68481C24.6592 4 21.9318 4 16.5069 4H15.5075C10.0816 4 7.3696 4 5.6848 5.68481C4 7.36961 4 10.0806 4 15.4931V16.5069C4 21.9184 4 24.6304 5.6848 26.3152C7.3696 28 10.0816 28 15.5075 28Z" stroke="black" stroke-linecap="round" stroke-linejoin="round"/>
<path d="M16.8787 21.3022C11.4671 21.3022 8.18298 17.5476 8.0553 11.3086H10.7961C10.8815 15.8916 12.9667 17.8366 14.5651 18.2331V11.3086H17.1926V15.2628C18.7343 15.092 20.3471 13.2929 20.8905 11.3086H23.4739C23.0601 13.7499 21.3043 15.5489 20.062 16.291C21.3043 16.891 23.303 18.4616 24.0739 21.3022H21.2332C20.6332 19.4033 19.1625 17.9326 17.1926 17.7329V21.3022H16.8787Z" stroke="black" stroke-linecap="round" stroke-linejoin="round"/>
</svg>
