<svg width="32" height="32" viewBox="0 0 32 32" fill="none" xmlns="http://www.w3.org/2000/svg">
<path fill-rule="evenodd" clip-rule="evenodd" d="M5.58817 15.2421C11.7897 12.5402 15.925 10.7589 17.9941 9.89831C23.9018 7.44109 25.1293 7.01424 25.9295 7.00015C26.1054 6.99705 26.4989 7.04066 26.7538 7.24748C26.969 7.42211 27.0282 7.658 27.0565 7.82357C27.0849 7.98914 27.1202 8.36631 27.0921 8.66101C26.772 12.0248 25.3867 20.1877 24.682 23.9551C24.3838 25.5493 23.7966 26.0838 23.2282 26.1361C21.9928 26.2498 21.0548 25.3197 19.8582 24.5354C17.986 23.3081 16.9282 22.5441 15.1108 21.3464C13.0105 19.9624 14.3721 19.2017 15.569 17.9584C15.8823 17.6331 21.3253 12.6823 21.4306 12.2331C21.4438 12.177 21.4561 11.9676 21.3317 11.857C21.2073 11.7465 21.0237 11.7843 20.8912 11.8144C20.7034 11.857 17.7124 13.8339 11.9182 17.7452C11.0692 18.3282 10.3002 18.6122 9.61122 18.5973C8.85167 18.5809 7.39059 18.1679 6.30444 17.8148C4.97222 17.3818 3.9134 17.1528 4.0056 16.4173C4.05362 16.0343 4.58114 15.6425 5.58817 15.2421Z" stroke="black" stroke-linecap="round" stroke-linejoin="round"/>
</svg>
