<svg width="32" height="32" viewBox="0 0 32 32" fill="none" xmlns="http://www.w3.org/2000/svg">
<path fill-rule="evenodd" clip-rule="evenodd" d="M2.6233 3.94748H3.24314C3.92947 3.94748 4.27349 3.64258 4.27349 3.03235C4.27349 2.42213 3.92947 2.11765 3.24314 2.11765H2.6233V3.94748ZM2.6233 7.9202H0.753052V0.579412H3.72958C4.5373 0.579412 5.15586 0.793272 5.58481 1.22099C6.01377 1.64957 6.22868 2.25422 6.22868 3.03235C6.22868 3.81092 6.0142 4.41514 5.58481 4.84329C5.15586 5.27187 4.5373 5.48573 3.72958 5.48573H2.6233V7.92063V7.9202ZM14.2613 3.85988H14.6143C14.9832 3.85988 15.2663 3.78215 15.4632 3.62627C15.6606 3.47081 15.7588 3.24621 15.7588 2.95506C15.7588 2.66261 15.6601 2.43844 15.4632 2.28299C15.2659 2.1271 14.9828 2.04894 14.6139 2.04894H14.2613V3.86031V3.85988ZM18.3724 7.9202H16.0445L14.2613 5.09666V7.9202H12.3919V0.578982H15.3007C15.7022 0.578982 16.0513 0.639104 16.3503 0.758916C16.6489 0.879159 16.8951 1.0432 17.0894 1.25105C17.2832 1.45845 17.4326 1.70339 17.5282 1.97079C17.6269 2.24391 17.6758 2.53593 17.6758 2.8477C17.6758 3.40596 17.5441 3.85816 17.2807 4.20558C17.0161 4.55342 16.627 4.78832 16.1114 4.912L18.3724 7.9202ZM25.3031 4.24938C25.3031 4.5414 25.3567 4.81108 25.4656 5.05758C25.569 5.29804 25.7177 5.51631 25.9036 5.70045C26.0881 5.8821 26.303 6.02338 26.5479 6.12387C26.7924 6.22436 27.0519 6.27417 27.3252 6.27417C27.8571 6.27677 28.369 6.07067 28.751 5.70002C28.9394 5.5169 29.0903 5.29866 29.195 5.05758C29.3022 4.81108 29.3571 4.5414 29.3571 4.24938C29.3597 3.97163 29.3045 3.69639 29.195 3.44118C28.9841 2.95648 28.5919 2.57382 28.1024 2.37532C27.8557 2.27459 27.5916 2.22351 27.3252 2.22501C27.0519 2.22501 26.7928 2.27483 26.5479 2.37532C26.3075 2.47291 26.0886 2.61677 25.9036 2.79874C25.7192 2.98039 25.5733 3.19511 25.4656 3.44118C25.3554 3.69619 25.3001 3.97155 25.3031 4.24938ZM23.3479 4.24938C23.3479 3.70399 23.4465 3.1964 23.6434 2.72574C23.8338 2.26546 24.1124 1.84702 24.4636 1.49411C24.822 1.13793 25.2486 0.858049 25.7179 0.671311C26.2047 0.47377 26.7401 0.375 27.3252 0.375C27.9038 0.375 28.4379 0.47377 28.9277 0.671311C29.3998 0.857959 29.8296 1.13778 30.1914 1.49411C30.5452 1.84598 30.8257 2.2646 31.0168 2.72574C31.2141 3.1964 31.3123 3.70399 31.3123 4.24938C31.3123 4.79476 31.2136 5.30322 31.0163 5.77388C30.8254 6.23472 30.545 6.65305 30.1914 7.00464C29.8299 7.36139 29.4001 7.64126 28.9277 7.82745C28.4379 8.02499 27.9038 8.12376 27.3252 8.12376C26.7401 8.12376 26.2047 8.02499 25.7179 7.82745C25.2484 7.64117 24.8216 7.36123 24.4636 7.00464C24.1124 6.65192 23.8337 6.23362 23.6434 5.77345C23.4461 5.30322 23.3475 4.79476 23.3475 4.24895" fill="#374146"/>
<path fill-rule="evenodd" clip-rule="evenodd" d="M16.3169 28.5382V31.2871H14.4475V28.5382H12.1628V26.6543H18.6015V28.5382H16.3169Z" fill="#374146"/>
<path fill-rule="evenodd" clip-rule="evenodd" d="M14.4475 25.8547H16.3169V23.9467H14.4475V25.8547ZM6.24286 14.7164C5.81048 14.1774 5.27643 13.9082 4.64028 13.9082C4.38113 13.9057 4.12414 13.9556 3.88478 14.0551C3.64542 14.1546 3.42864 14.3015 3.24746 14.4871C3.07588 14.6657 2.94119 14.8791 2.84296 15.1252C2.74286 15.3792 2.69247 15.6501 2.69454 15.9231C2.69454 16.2155 2.7443 16.4848 2.84296 16.7317C2.94162 16.9786 3.07803 17.1925 3.25304 17.3742C3.42805 17.5558 3.63267 17.6997 3.86773 17.8027C4.1084 17.9076 4.36838 17.9607 4.63085 17.9586C5.22838 17.9586 5.76586 17.6997 6.24286 17.1796V19.4385L6.05241 19.5063C5.79148 19.6027 5.52361 19.679 5.25112 19.7348C5.00912 19.7829 4.76303 19.8073 4.51632 19.8078C4.0266 19.8091 3.54165 19.7115 3.09047 19.5209C2.64085 19.3331 2.23247 19.0586 1.88853 18.7131C1.5358 18.3566 1.25282 17.9371 1.05421 17.4764C0.844452 16.9997 0.739358 16.4788 0.739358 15.9141C0.739358 15.3489 0.842307 14.8319 1.04906 14.3612C1.24512 13.906 1.52693 13.4928 1.87909 13.1442C2.58572 12.4495 3.53621 12.0597 4.52661 12.0586C4.8123 12.0586 5.09369 12.0891 5.37037 12.1509C5.64662 12.2128 5.93788 12.3085 6.24286 12.4386V14.7164ZM14.0323 15.096H16.7317V12.263H18.6011V19.6034H16.7317V16.5763H14.0327V19.6038H12.1633V12.2626H14.0327L14.0323 15.096ZM28.1694 16.8777L27.3299 14.4334L26.4904 16.8777H28.1694ZM28.6657 18.3284H25.9941L25.5656 19.6038H23.5723L26.3094 12.2626H28.3513L31.088 19.6038H29.0946L28.6657 18.3284ZM2.37068 27.2276H2.72328C3.09175 27.2276 3.37529 27.1494 3.57261 26.9935C3.7695 26.8372 3.86773 26.6139 3.86773 26.3219C3.86773 26.0299 3.76907 25.8057 3.57261 25.6503C3.37529 25.4944 3.09175 25.4162 2.72328 25.4162H2.37068V27.2276ZM6.48136 31.2875H4.15342L2.37025 28.4639V31.2875H0.5V23.9463H3.40961C3.81025 23.9463 4.16028 24.0064 4.45926 24.1262C4.75782 24.2464 5.00404 24.4105 5.1975 24.6179C5.39159 24.8256 5.54121 25.0708 5.63718 25.3385C5.73679 25.6199 5.78673 25.9165 5.78474 26.215C5.78474 26.7732 5.65262 27.2254 5.38881 27.5729C5.125 27.9207 4.73551 28.1556 4.22034 28.2793L6.48093 31.2875H6.48136ZM26.3905 27.7627L23.767 23.9463H25.9993L27.3351 25.9517L28.6605 23.9463H30.8928L28.2599 27.7631V31.2875H26.3905V27.7627Z" fill="#77C5D5"/>
</svg>
