<svg width="96" height="96" viewBox="0 0 96 96" fill="none" xmlns="http://www.w3.org/2000/svg">
<rect width="96" height="96" fill="#E5E5E5"/>
<g clip-path="url(#clip0_0_1)">
<rect width="1280" height="8415" transform="translate(-800 -3393)" fill="white"/>
<rect width="96" height="96" fill="white"/>
<mask id="path-2-outside-1_0_1" maskUnits="userSpaceOnUse" x="-0.995605" y="17.6086" width="97" height="64" fill="black">
<rect fill="white" x="-0.995605" y="17.6086" width="97" height="64"/>
<path d="M94.9495 45.1869L83.3638 19.4538C83.2873 19.2825 83.1779 19.1279 83.0416 18.999C82.9054 18.8701 82.7451 18.7693 82.5699 18.7024C82.3946 18.6355 82.2079 18.6038 82.0204 18.6092C81.8329 18.6146 81.6483 18.6569 81.4772 18.7338L70.2722 23.7738C70.1008 23.8505 69.9462 23.9603 69.8173 24.0969C69.6885 24.2336 69.5879 24.3943 69.5213 24.5699C69.4547 24.7455 69.4235 24.9325 69.4294 25.1203C69.4353 25.308 69.4782 25.4927 69.5557 25.6638L69.9018 26.4426C66.8284 27.4099 63.5687 27.6306 60.393 27.0865C58.2649 26.7317 56.0929 26.7317 53.9649 27.0865C52.2596 27.3644 50.5979 27.8636 49.0218 28.5715C48.3295 28.9176 47.6095 29.2638 46.8791 29.7138L40.7729 32.708C39.8243 32.5195 38.8627 32.4037 37.8964 32.3618C34.6388 32.2651 31.4533 31.3802 28.6125 29.783L29.0798 29.1461C29.3008 28.8384 29.3906 28.4557 29.3296 28.0818C29.2686 27.708 29.0618 27.3737 28.7544 27.1522L18.761 19.9591C18.4528 19.738 18.0695 19.6481 17.6951 19.709C17.3207 19.77 16.9857 19.977 16.7637 20.2845L0.272863 43.1896C0.0518999 43.4972 -0.0379415 43.88 0.0230656 44.2538C0.0840728 44.6276 0.290941 44.962 0.598248 45.1834L10.5744 52.373C10.7264 52.4831 10.8986 52.562 11.0811 52.6054C11.2636 52.6488 11.4529 52.6557 11.6381 52.6258C11.8234 52.5959 12.0009 52.5298 12.1605 52.4311C12.3201 52.3325 12.4587 52.2034 12.5683 52.0511L13.046 51.3865C15.4538 53.5775 17.2999 56.3152 18.4287 59.3688C18.5221 59.618 18.626 59.8638 18.7333 60.1096L17.1617 62.2904C16.6617 62.9751 16.3511 63.7796 16.2612 64.6227C16.1714 65.4658 16.3054 66.3177 16.6497 67.0924C16.9941 67.8672 17.5367 68.5375 18.2228 69.0357C18.9089 69.5339 19.7142 69.8423 20.5575 69.93C20.5593 70.177 20.5802 70.4235 20.6198 70.6673C20.8038 71.8033 21.3842 72.8375 22.2579 73.5864C23.1317 74.3354 24.2425 74.7507 25.3933 74.7588C25.5274 74.7588 25.6614 74.7519 25.7948 74.7381C26.0603 75.7822 26.6642 76.7089 27.5122 77.3734C28.3602 78.0379 29.4045 78.4027 30.4818 78.4108C30.992 78.408 31.4988 78.3263 31.9841 78.1685C32.3731 79.0063 32.9923 79.7164 33.7694 80.2158C34.5465 80.7153 35.4495 80.9837 36.3733 80.9896C36.6426 80.9895 36.9114 80.9651 37.1764 80.9169C37.8077 80.8214 38.4132 80.5996 38.9568 80.2648C39.5004 79.9299 39.9709 79.4889 40.3402 78.9681L41.2991 77.6388L45.941 80.3077C46.7441 80.7602 47.65 80.9986 48.5718 81C49.2934 80.9971 50.0068 80.8467 50.6682 80.558C51.3295 80.2693 51.9248 79.8484 52.4176 79.3211C52.9637 78.7019 53.3489 77.9577 53.5391 77.1542C54.4984 77.4585 55.5157 77.5332 56.5091 77.3723C57.32 77.2418 58.0971 76.9523 58.7957 76.5205C59.4944 76.0886 60.1007 75.5228 60.5799 74.8558C61.2155 73.9652 61.6102 72.9254 61.7256 71.8373C61.7782 71.3593 61.77 70.8767 61.7014 70.4007C62.5579 70.3649 63.3972 70.1491 64.1648 69.7674C64.9324 69.3857 65.611 68.8467 66.1564 68.1854C67.0904 67.0644 67.5991 65.6498 67.593 64.1907C67.9507 64.1908 68.3081 64.1665 68.6626 64.118C69.3194 64.0133 69.9486 63.7784 70.5133 63.4271C71.078 63.0758 71.5668 62.6152 71.951 62.0723C72.6092 61.1441 73.0202 60.0636 73.1453 58.9327C73.1453 58.8461 73.1453 58.7596 73.1453 58.6765C73.4499 58.2646 73.7476 57.8319 74.0314 57.3992C75.7239 54.6623 78.0481 52.3712 80.8091 50.7184L81.1138 51.4107C81.2694 51.7563 81.556 52.0259 81.9104 52.1603C82.2648 52.2947 82.6581 52.2828 83.0038 52.1273L94.2261 47.0907C94.3995 47.0143 94.556 46.9042 94.6865 46.7668C94.817 46.6294 94.9189 46.4673 94.9862 46.2902C95.0536 46.113 95.085 45.9243 95.0787 45.7348C95.0724 45.5454 95.0285 45.3592 94.9495 45.1869ZM18.4044 23.8707L25.1717 28.7411L11.3429 47.9284L10.9967 48.4373L4.20864 43.5669L18.4044 23.8707ZM19.9379 64.2877L20.426 63.6196L22.2017 61.1965C22.3208 61.0321 22.4735 60.895 22.6497 60.7942C22.8258 60.6934 23.0215 60.6313 23.2235 60.612C23.4255 60.5926 23.6294 60.6166 23.8215 60.6821C24.0135 60.7477 24.1895 60.8534 24.3375 60.9923C24.4908 61.1448 24.6083 61.3296 24.6813 61.5331C24.7544 61.7367 24.7812 61.954 24.7598 62.1692C24.7367 62.4104 24.6521 62.6416 24.5141 62.8407L22.2121 66.0357C21.9828 66.3237 21.6517 66.5126 21.2871 66.5634C20.9225 66.6143 20.5523 66.5233 20.2529 66.3092C19.9476 66.0795 19.7439 65.7398 19.6851 65.3624C19.6263 64.9849 19.717 64.5993 19.9379 64.2877ZM24.5798 71.0827C24.2698 70.8632 24.0593 70.5298 23.9944 70.1555C23.9295 69.7812 24.0155 69.3964 24.2337 69.0854L27.2798 64.8554H27.3006L29.2737 62.1277C29.3808 61.9733 29.5178 61.842 29.6765 61.7416C29.8353 61.6411 30.0126 61.5734 30.1979 61.5427C30.3841 61.5081 30.5753 61.512 30.7599 61.5543C30.9445 61.5966 31.1184 61.6763 31.271 61.7884C31.4482 61.9173 31.5934 62.0851 31.6954 62.2789C31.7975 62.4728 31.8536 62.6875 31.8594 62.9065C31.8594 62.9619 31.8594 63.0207 31.8594 63.0796C31.8368 63.2742 31.7731 63.4618 31.6725 63.63C31.6448 63.668 31.6171 63.6992 31.5894 63.7338L26.5598 70.7157C26.5356 70.7504 26.5148 70.785 26.4941 70.8196C26.2661 71.1011 25.9393 71.285 25.5804 71.3339C25.2215 71.3828 24.8575 71.293 24.5625 71.0827H24.5798ZM29.696 74.7346C29.5347 74.6311 29.3966 74.4951 29.2905 74.3354C29.1845 74.1757 29.1127 73.9958 29.0798 73.8069C29.0206 73.4749 29.0846 73.1328 29.2598 72.8446C29.2875 72.81 29.3187 72.7754 29.3464 72.7373L34.376 65.7727C34.4198 65.7112 34.4684 65.6533 34.5214 65.5996C34.5763 65.5497 34.6354 65.5046 34.6979 65.4646C34.729 65.443 34.7613 65.4233 34.7948 65.4057C34.8426 65.3769 34.8924 65.3515 34.9437 65.3296L34.9956 65.3088C35.0799 65.2773 35.1668 65.253 35.2552 65.2361C35.3444 65.2209 35.4348 65.2139 35.5252 65.2154H35.5702C35.764 65.225 35.9538 65.2743 36.1278 65.3601C36.3018 65.446 36.4563 65.5666 36.5818 65.7145C36.7074 65.8624 36.8013 66.0345 36.8577 66.2202C36.9141 66.4058 36.9319 66.601 36.9098 66.7938C36.8836 67.0446 36.7903 67.2838 36.6398 67.4861L34.8606 69.9473C34.7948 70.0269 34.7291 70.1031 34.6668 70.1861L32.4271 73.3015C32.3357 73.4271 32.2514 73.5577 32.1744 73.6927L31.6483 74.4196C31.4247 74.7169 31.0944 74.9159 30.7271 74.9747C30.3597 75.0334 29.9839 74.9474 29.6787 74.7346H29.696ZM36.6571 77.5592C36.3777 77.606 36.0907 77.5691 35.8322 77.4532C35.5737 77.3373 35.3553 77.1475 35.2043 76.9078C35.0534 76.6681 34.9767 76.389 34.9839 76.1058C34.9911 75.8226 35.0819 75.5479 35.2448 75.3161L37.4845 72.2007C37.7067 71.8935 38.0391 71.6839 38.4122 71.6158C38.5013 71.6002 38.5917 71.5933 38.6822 71.595H38.7514C38.8129 71.5985 38.8741 71.6054 38.9348 71.6158L39.0075 71.6331C39.1773 71.6789 39.3377 71.7538 39.4818 71.8546C39.6858 72.0027 39.8473 72.2019 39.95 72.4322C40.0527 72.6625 40.093 72.9157 40.0668 73.1665C40.0387 73.4163 39.9469 73.6547 39.8002 73.8588L38.7029 75.3923L37.5814 76.9535C37.4742 77.1134 37.3353 77.2497 37.1734 77.3539C37.0114 77.4581 36.8298 77.528 36.6398 77.5592H36.6571ZM69.6976 58.59C69.6488 59.1267 69.455 59.64 69.1368 60.075C68.8768 60.4222 68.4944 60.6573 68.0672 60.7327C67.855 60.7691 67.6376 60.7621 67.4282 60.7121C67.2187 60.6622 67.0216 60.5702 66.8487 60.4419L65.1803 59.2442C65.111 59.1711 65.0358 59.1039 64.9553 59.0434L61.2306 56.3642C60.8625 56.1296 60.4186 56.0446 59.9899 56.1267C59.5611 56.2089 59.18 56.4519 58.9247 56.8059C58.6693 57.16 58.559 57.5983 58.6164 58.031C58.6738 58.4638 58.8945 58.8582 59.2333 59.1334L62.9545 61.8092L62.9372 61.8369C63.2569 62.0615 63.5259 62.3508 63.7268 62.6859C63.9277 63.0209 64.0561 63.3945 64.1037 63.7823C64.1542 64.172 64.124 64.5679 64.0151 64.9454C63.9061 65.323 63.7207 65.674 63.4703 65.9769C62.9748 66.5287 62.2918 66.8765 61.5541 66.9527C60.8164 67.0288 60.0768 66.8278 59.4791 66.3888L59.3753 66.3127C59.2968 66.2235 59.2085 66.1433 59.1122 66.0738L54.5118 62.7611C54.1437 62.5265 53.6998 62.4416 53.271 62.5237C52.8423 62.6058 52.4612 62.8488 52.2058 63.2028C51.9505 63.5569 51.8402 63.9952 51.8976 64.4279C51.955 64.8607 52.1757 65.2551 52.5145 65.5304L57.1183 68.8534L57.146 68.8811C57.5418 69.1823 57.8544 69.5793 58.0542 70.0348C58.2541 70.4902 58.3346 70.989 58.2883 71.4842C58.2397 71.9801 58.0606 72.4543 57.7692 72.8585C57.4779 73.2627 57.0847 73.5826 56.6296 73.7855C56.1745 73.9884 55.6738 74.0672 55.1783 74.0138C54.6829 73.9604 54.2105 73.7768 53.8091 73.4815L51.5695 71.8511L47.2114 68.7081C47.0307 68.5612 46.8219 68.4529 46.5978 68.3896C46.3738 68.3263 46.1392 68.3095 45.9083 68.3401C45.6775 68.3707 45.4554 68.4481 45.2556 68.5676C45.0558 68.6871 44.8824 68.8461 44.7462 69.035C44.61 69.2238 44.5138 69.4384 44.4635 69.6658C44.4132 69.8931 44.4099 70.1283 44.4537 70.357C44.4975 70.5856 44.5875 70.803 44.7183 70.9956C44.849 71.1882 45.0177 71.3522 45.2141 71.4773L49.5722 74.6169C49.7557 74.7514 49.909 74.9229 50.0223 75.1202C50.1355 75.3175 50.2063 75.5364 50.2299 75.7627C50.2656 75.9935 50.249 76.2293 50.1813 76.4528C50.1136 76.6763 49.9965 76.8817 49.8387 77.0538C49.5631 77.3404 49.1972 77.5233 48.8026 77.5719C48.4079 77.6204 48.0086 77.5316 47.6718 77.3204L43.1925 74.7415C43.2576 74.5715 43.3097 74.3967 43.3483 74.2188C43.4087 73.9818 43.455 73.7414 43.4868 73.4988C43.5991 72.3768 43.318 71.2506 42.6916 70.3129C42.0652 69.3752 41.1325 68.6843 40.0529 68.3584C40.2125 67.9444 40.3184 67.5117 40.3679 67.0707C40.4497 66.2226 40.3088 65.3678 39.9591 64.5907C39.6094 63.8137 39.0631 63.1413 38.3741 62.64C37.4408 61.9701 36.2999 61.6536 35.1548 61.7469C34.8607 60.5683 34.1346 59.5431 33.1204 58.8744C32.1062 58.2058 30.8779 57.9424 29.6787 58.1365C28.8241 58.2638 28.0207 58.623 27.356 59.175L27.3179 59.2061C27.007 58.7584 26.6204 58.3684 26.1756 58.0534C25.6621 57.6782 25.0789 57.4093 24.4601 57.2625C23.8413 57.1157 23.1994 57.0939 22.5721 57.1984C22.1389 57.2741 21.7175 57.4068 21.319 57.593C19.9377 54.1683 17.7785 51.1119 15.0121 48.6657L26.5737 32.6145C28.9057 33.9943 31.4681 34.9407 34.1371 35.408L32.6764 49.7976C32.6213 50.311 32.6684 50.8302 32.815 51.3252C32.9615 51.8203 33.2047 52.2814 33.5303 52.6821C33.856 53.0827 34.2577 53.4149 34.7124 53.6595C35.1671 53.9041 35.6657 54.0563 36.1795 54.1073C37.6643 54.2695 39.1634 53.9774 40.4787 53.2696C40.9314 53.0324 41.3593 52.7506 41.756 52.4284C42.5355 51.8095 43.1824 51.04 43.6581 50.1658C44.1339 49.2916 44.4288 48.3306 44.5252 47.3399L44.9129 43.5876C46.6286 43.51 48.3075 43.0637 49.8352 42.2792C50.0499 42.1719 50.261 42.0542 50.4687 41.933L68.5068 55.8588C68.628 55.9557 68.7283 56.0284 68.7768 56.0769L68.801 56.1011C68.8253 56.1253 68.8737 56.1496 68.898 56.198L68.9464 56.2465C68.9707 56.2465 68.9707 56.2707 68.9949 56.295L69.0434 56.3434L69.116 56.4161L69.1887 56.513C69.213 56.5373 69.2372 56.5892 69.2614 56.6134C69.3185 56.6973 69.3672 56.7866 69.4068 56.88L69.431 56.9284C69.4587 56.9769 69.4587 57.0011 69.483 57.0496C69.5072 57.098 69.5072 57.1465 69.5314 57.195C69.5557 57.2434 69.5557 57.2953 69.5799 57.3438L69.6283 57.4892C69.662 57.6024 69.6864 57.7182 69.701 57.8353V57.8838C69.7229 57.9387 69.7313 57.9981 69.7253 58.0569V58.2023C69.7383 58.3332 69.7229 58.4655 69.6803 58.59H69.6976ZM79.4107 47.5857C76.4571 49.2958 73.9116 51.6287 71.951 54.4223V54.4015C71.9026 54.3288 71.8299 54.2561 71.7814 54.1834C71.733 54.1107 71.6118 53.9896 71.5114 53.8926L71.2691 53.6469C71.0848 53.4654 70.8894 53.2955 70.6841 53.138L50.6072 37.6511L49.5687 38.4299C47.8515 39.7352 45.7013 40.3368 43.556 40.1122L41.8495 39.9392L41.1572 46.9765C41.038 48.0709 40.4965 49.0756 39.6479 49.7769C38.7927 50.4677 37.6986 50.7913 36.6052 50.6769C36.5376 50.6722 36.4717 50.6538 36.4114 50.623C36.3511 50.5921 36.2977 50.5493 36.2543 50.4973C36.211 50.4452 36.1786 50.3849 36.1592 50.32C36.1398 50.2551 36.1337 50.1869 36.1414 50.1196L37.3598 38.1634L46.1002 33.9022H46.0275L48.4506 32.7011L48.5995 32.6284C49.1978 32.2714 49.8149 31.9467 50.4479 31.6557C51.7471 31.0525 53.1243 30.6342 54.5395 30.413C56.3045 30.1222 58.1052 30.1222 59.8703 30.413C63.6897 31.0793 67.6149 30.7867 71.2934 29.5615L72.8891 33.1061L79.4107 47.5857ZM83.4261 48.1949L73.4672 26.0618L81.0826 22.6557L91.0415 44.7853L83.4261 48.1949Z"/>
</mask>
<path d="M94.9495 45.1869L83.3638 19.4538C83.2873 19.2825 83.1779 19.1279 83.0416 18.999C82.9054 18.8701 82.7451 18.7693 82.5699 18.7024C82.3946 18.6355 82.2079 18.6038 82.0204 18.6092C81.8329 18.6146 81.6483 18.6569 81.4772 18.7338L70.2722 23.7738C70.1008 23.8505 69.9462 23.9603 69.8173 24.0969C69.6885 24.2336 69.5879 24.3943 69.5213 24.5699C69.4547 24.7455 69.4235 24.9325 69.4294 25.1203C69.4353 25.308 69.4782 25.4927 69.5557 25.6638L69.9018 26.4426C66.8284 27.4099 63.5687 27.6306 60.393 27.0865C58.2649 26.7317 56.0929 26.7317 53.9649 27.0865C52.2596 27.3644 50.5979 27.8636 49.0218 28.5715C48.3295 28.9176 47.6095 29.2638 46.8791 29.7138L40.7729 32.708C39.8243 32.5195 38.8627 32.4037 37.8964 32.3618C34.6388 32.2651 31.4533 31.3802 28.6125 29.783L29.0798 29.1461C29.3008 28.8384 29.3906 28.4557 29.3296 28.0818C29.2686 27.708 29.0618 27.3737 28.7544 27.1522L18.761 19.9591C18.4528 19.738 18.0695 19.6481 17.6951 19.709C17.3207 19.77 16.9857 19.977 16.7637 20.2845L0.272863 43.1896C0.0518999 43.4972 -0.0379415 43.88 0.0230656 44.2538C0.0840728 44.6276 0.290941 44.962 0.598248 45.1834L10.5744 52.373C10.7264 52.4831 10.8986 52.562 11.0811 52.6054C11.2636 52.6488 11.4529 52.6557 11.6381 52.6258C11.8234 52.5959 12.0009 52.5298 12.1605 52.4311C12.3201 52.3325 12.4587 52.2034 12.5683 52.0511L13.046 51.3865C15.4538 53.5775 17.2999 56.3152 18.4287 59.3688C18.5221 59.618 18.626 59.8638 18.7333 60.1096L17.1617 62.2904C16.6617 62.9751 16.3511 63.7796 16.2612 64.6227C16.1714 65.4658 16.3054 66.3177 16.6497 67.0924C16.9941 67.8672 17.5367 68.5375 18.2228 69.0357C18.9089 69.5339 19.7142 69.8423 20.5575 69.93C20.5593 70.177 20.5802 70.4235 20.6198 70.6673C20.8038 71.8033 21.3842 72.8375 22.2579 73.5864C23.1317 74.3354 24.2425 74.7507 25.3933 74.7588C25.5274 74.7588 25.6614 74.7519 25.7948 74.7381C26.0603 75.7822 26.6642 76.7089 27.5122 77.3734C28.3602 78.0379 29.4045 78.4027 30.4818 78.4108C30.992 78.408 31.4988 78.3263 31.9841 78.1685C32.3731 79.0063 32.9923 79.7164 33.7694 80.2158C34.5465 80.7153 35.4495 80.9837 36.3733 80.9896C36.6426 80.9895 36.9114 80.9651 37.1764 80.9169C37.8077 80.8214 38.4132 80.5996 38.9568 80.2648C39.5004 79.9299 39.9709 79.4889 40.3402 78.9681L41.2991 77.6388L45.941 80.3077C46.7441 80.7602 47.65 80.9986 48.5718 81C49.2934 80.9971 50.0068 80.8467 50.6682 80.558C51.3295 80.2693 51.9248 79.8484 52.4176 79.3211C52.9637 78.7019 53.3489 77.9577 53.5391 77.1542C54.4984 77.4585 55.5157 77.5332 56.5091 77.3723C57.32 77.2418 58.0971 76.9523 58.7957 76.5205C59.4944 76.0886 60.1007 75.5228 60.5799 74.8558C61.2155 73.9652 61.6102 72.9254 61.7256 71.8373C61.7782 71.3593 61.77 70.8767 61.7014 70.4007C62.5579 70.3649 63.3972 70.1491 64.1648 69.7674C64.9324 69.3857 65.611 68.8467 66.1564 68.1854C67.0904 67.0644 67.5991 65.6498 67.593 64.1907C67.9507 64.1908 68.3081 64.1665 68.6626 64.118C69.3194 64.0133 69.9486 63.7784 70.5133 63.4271C71.078 63.0758 71.5668 62.6152 71.951 62.0723C72.6092 61.1441 73.0202 60.0636 73.1453 58.9327C73.1453 58.8461 73.1453 58.7596 73.1453 58.6765C73.4499 58.2646 73.7476 57.8319 74.0314 57.3992C75.7239 54.6623 78.0481 52.3712 80.8091 50.7184L81.1138 51.4107C81.2694 51.7563 81.556 52.0259 81.9104 52.1603C82.2648 52.2947 82.6581 52.2828 83.0038 52.1273L94.2261 47.0907C94.3995 47.0143 94.556 46.9042 94.6865 46.7668C94.817 46.6294 94.9189 46.4673 94.9862 46.2902C95.0536 46.113 95.085 45.9243 95.0787 45.7348C95.0724 45.5454 95.0285 45.3592 94.9495 45.1869ZM18.4044 23.8707L25.1717 28.7411L11.3429 47.9284L10.9967 48.4373L4.20864 43.5669L18.4044 23.8707ZM19.9379 64.2877L20.426 63.6196L22.2017 61.1965C22.3208 61.0321 22.4735 60.895 22.6497 60.7942C22.8258 60.6934 23.0215 60.6313 23.2235 60.612C23.4255 60.5926 23.6294 60.6166 23.8215 60.6821C24.0135 60.7477 24.1895 60.8534 24.3375 60.9923C24.4908 61.1448 24.6083 61.3296 24.6813 61.5331C24.7544 61.7367 24.7812 61.954 24.7598 62.1692C24.7367 62.4104 24.6521 62.6416 24.5141 62.8407L22.2121 66.0357C21.9828 66.3237 21.6517 66.5126 21.2871 66.5634C20.9225 66.6143 20.5523 66.5233 20.2529 66.3092C19.9476 66.0795 19.7439 65.7398 19.6851 65.3624C19.6263 64.9849 19.717 64.5993 19.9379 64.2877ZM24.5798 71.0827C24.2698 70.8632 24.0593 70.5298 23.9944 70.1555C23.9295 69.7812 24.0155 69.3964 24.2337 69.0854L27.2798 64.8554H27.3006L29.2737 62.1277C29.3808 61.9733 29.5178 61.842 29.6765 61.7416C29.8353 61.6411 30.0126 61.5734 30.1979 61.5427C30.3841 61.5081 30.5753 61.512 30.7599 61.5543C30.9445 61.5966 31.1184 61.6763 31.271 61.7884C31.4482 61.9173 31.5934 62.0851 31.6954 62.2789C31.7975 62.4728 31.8536 62.6875 31.8594 62.9065C31.8594 62.9619 31.8594 63.0207 31.8594 63.0796C31.8368 63.2742 31.7731 63.4618 31.6725 63.63C31.6448 63.668 31.6171 63.6992 31.5894 63.7338L26.5598 70.7157C26.5356 70.7504 26.5148 70.785 26.4941 70.8196C26.2661 71.1011 25.9393 71.285 25.5804 71.3339C25.2215 71.3828 24.8575 71.293 24.5625 71.0827H24.5798ZM29.696 74.7346C29.5347 74.6311 29.3966 74.4951 29.2905 74.3354C29.1845 74.1757 29.1127 73.9958 29.0798 73.8069C29.0206 73.4749 29.0846 73.1328 29.2598 72.8446C29.2875 72.81 29.3187 72.7754 29.3464 72.7373L34.376 65.7727C34.4198 65.7112 34.4684 65.6533 34.5214 65.5996C34.5763 65.5497 34.6354 65.5046 34.6979 65.4646C34.729 65.443 34.7613 65.4233 34.7948 65.4057C34.8426 65.3769 34.8924 65.3515 34.9437 65.3296L34.9956 65.3088C35.0799 65.2773 35.1668 65.253 35.2552 65.2361C35.3444 65.2209 35.4348 65.2139 35.5252 65.2154H35.5702C35.764 65.225 35.9538 65.2743 36.1278 65.3601C36.3018 65.446 36.4563 65.5666 36.5818 65.7145C36.7074 65.8624 36.8013 66.0345 36.8577 66.2202C36.9141 66.4058 36.9319 66.601 36.9098 66.7938C36.8836 67.0446 36.7903 67.2838 36.6398 67.4861L34.8606 69.9473C34.7948 70.0269 34.7291 70.1031 34.6668 70.1861L32.4271 73.3015C32.3357 73.4271 32.2514 73.5577 32.1744 73.6927L31.6483 74.4196C31.4247 74.7169 31.0944 74.9159 30.7271 74.9747C30.3597 75.0334 29.9839 74.9474 29.6787 74.7346H29.696ZM36.6571 77.5592C36.3777 77.606 36.0907 77.5691 35.8322 77.4532C35.5737 77.3373 35.3553 77.1475 35.2043 76.9078C35.0534 76.6681 34.9767 76.389 34.9839 76.1058C34.9911 75.8226 35.0819 75.5479 35.2448 75.3161L37.4845 72.2007C37.7067 71.8935 38.0391 71.6839 38.4122 71.6158C38.5013 71.6002 38.5917 71.5933 38.6822 71.595H38.7514C38.8129 71.5985 38.8741 71.6054 38.9348 71.6158L39.0075 71.6331C39.1773 71.6789 39.3377 71.7538 39.4818 71.8546C39.6858 72.0027 39.8473 72.2019 39.95 72.4322C40.0527 72.6625 40.093 72.9157 40.0668 73.1665C40.0387 73.4163 39.9469 73.6547 39.8002 73.8588L38.7029 75.3923L37.5814 76.9535C37.4742 77.1134 37.3353 77.2497 37.1734 77.3539C37.0114 77.4581 36.8298 77.528 36.6398 77.5592H36.6571ZM69.6976 58.59C69.6488 59.1267 69.455 59.64 69.1368 60.075C68.8768 60.4222 68.4944 60.6573 68.0672 60.7327C67.855 60.7691 67.6376 60.7621 67.4282 60.7121C67.2187 60.6622 67.0216 60.5702 66.8487 60.4419L65.1803 59.2442C65.111 59.1711 65.0358 59.1039 64.9553 59.0434L61.2306 56.3642C60.8625 56.1296 60.4186 56.0446 59.9899 56.1267C59.5611 56.2089 59.18 56.4519 58.9247 56.8059C58.6693 57.16 58.559 57.5983 58.6164 58.031C58.6738 58.4638 58.8945 58.8582 59.2333 59.1334L62.9545 61.8092L62.9372 61.8369C63.2569 62.0615 63.5259 62.3508 63.7268 62.6859C63.9277 63.0209 64.0561 63.3945 64.1037 63.7823C64.1542 64.172 64.124 64.5679 64.0151 64.9454C63.9061 65.323 63.7207 65.674 63.4703 65.9769C62.9748 66.5287 62.2918 66.8765 61.5541 66.9527C60.8164 67.0288 60.0768 66.8278 59.4791 66.3888L59.3753 66.3127C59.2968 66.2235 59.2085 66.1433 59.1122 66.0738L54.5118 62.7611C54.1437 62.5265 53.6998 62.4416 53.271 62.5237C52.8423 62.6058 52.4612 62.8488 52.2058 63.2028C51.9505 63.5569 51.8402 63.9952 51.8976 64.4279C51.955 64.8607 52.1757 65.2551 52.5145 65.5304L57.1183 68.8534L57.146 68.8811C57.5418 69.1823 57.8544 69.5793 58.0542 70.0348C58.2541 70.4902 58.3346 70.989 58.2883 71.4842C58.2397 71.9801 58.0606 72.4543 57.7692 72.8585C57.4779 73.2627 57.0847 73.5826 56.6296 73.7855C56.1745 73.9884 55.6738 74.0672 55.1783 74.0138C54.6829 73.9604 54.2105 73.7768 53.8091 73.4815L51.5695 71.8511L47.2114 68.7081C47.0307 68.5612 46.8219 68.4529 46.5978 68.3896C46.3738 68.3263 46.1392 68.3095 45.9083 68.3401C45.6775 68.3707 45.4554 68.4481 45.2556 68.5676C45.0558 68.6871 44.8824 68.8461 44.7462 69.035C44.61 69.2238 44.5138 69.4384 44.4635 69.6658C44.4132 69.8931 44.4099 70.1283 44.4537 70.357C44.4975 70.5856 44.5875 70.803 44.7183 70.9956C44.849 71.1882 45.0177 71.3522 45.2141 71.4773L49.5722 74.6169C49.7557 74.7514 49.909 74.9229 50.0223 75.1202C50.1355 75.3175 50.2063 75.5364 50.2299 75.7627C50.2656 75.9935 50.249 76.2293 50.1813 76.4528C50.1136 76.6763 49.9965 76.8817 49.8387 77.0538C49.5631 77.3404 49.1972 77.5233 48.8026 77.5719C48.4079 77.6204 48.0086 77.5316 47.6718 77.3204L43.1925 74.7415C43.2576 74.5715 43.3097 74.3967 43.3483 74.2188C43.4087 73.9818 43.455 73.7414 43.4868 73.4988C43.5991 72.3768 43.318 71.2506 42.6916 70.3129C42.0652 69.3752 41.1325 68.6843 40.0529 68.3584C40.2125 67.9444 40.3184 67.5117 40.3679 67.0707C40.4497 66.2226 40.3088 65.3678 39.9591 64.5907C39.6094 63.8137 39.0631 63.1413 38.3741 62.64C37.4408 61.9701 36.2999 61.6536 35.1548 61.7469C34.8607 60.5683 34.1346 59.5431 33.1204 58.8744C32.1062 58.2058 30.8779 57.9424 29.6787 58.1365C28.8241 58.2638 28.0207 58.623 27.356 59.175L27.3179 59.2061C27.007 58.7584 26.6204 58.3684 26.1756 58.0534C25.6621 57.6782 25.0789 57.4093 24.4601 57.2625C23.8413 57.1157 23.1994 57.0939 22.5721 57.1984C22.1389 57.2741 21.7175 57.4068 21.319 57.593C19.9377 54.1683 17.7785 51.1119 15.0121 48.6657L26.5737 32.6145C28.9057 33.9943 31.4681 34.9407 34.1371 35.408L32.6764 49.7976C32.6213 50.311 32.6684 50.8302 32.815 51.3252C32.9615 51.8203 33.2047 52.2814 33.5303 52.6821C33.856 53.0827 34.2577 53.4149 34.7124 53.6595C35.1671 53.9041 35.6657 54.0563 36.1795 54.1073C37.6643 54.2695 39.1634 53.9774 40.4787 53.2696C40.9314 53.0324 41.3593 52.7506 41.756 52.4284C42.5355 51.8095 43.1824 51.04 43.6581 50.1658C44.1339 49.2916 44.4288 48.3306 44.5252 47.3399L44.9129 43.5876C46.6286 43.51 48.3075 43.0637 49.8352 42.2792C50.0499 42.1719 50.261 42.0542 50.4687 41.933L68.5068 55.8588C68.628 55.9557 68.7283 56.0284 68.7768 56.0769L68.801 56.1011C68.8253 56.1253 68.8737 56.1496 68.898 56.198L68.9464 56.2465C68.9707 56.2465 68.9707 56.2707 68.9949 56.295L69.0434 56.3434L69.116 56.4161L69.1887 56.513C69.213 56.5373 69.2372 56.5892 69.2614 56.6134C69.3185 56.6973 69.3672 56.7866 69.4068 56.88L69.431 56.9284C69.4587 56.9769 69.4587 57.0011 69.483 57.0496C69.5072 57.098 69.5072 57.1465 69.5314 57.195C69.5557 57.2434 69.5557 57.2953 69.5799 57.3438L69.6283 57.4892C69.662 57.6024 69.6864 57.7182 69.701 57.8353V57.8838C69.7229 57.9387 69.7313 57.9981 69.7253 58.0569V58.2023C69.7383 58.3332 69.7229 58.4655 69.6803 58.59H69.6976ZM79.4107 47.5857C76.4571 49.2958 73.9116 51.6287 71.951 54.4223V54.4015C71.9026 54.3288 71.8299 54.2561 71.7814 54.1834C71.733 54.1107 71.6118 53.9896 71.5114 53.8926L71.2691 53.6469C71.0848 53.4654 70.8894 53.2955 70.6841 53.138L50.6072 37.6511L49.5687 38.4299C47.8515 39.7352 45.7013 40.3368 43.556 40.1122L41.8495 39.9392L41.1572 46.9765C41.038 48.0709 40.4965 49.0756 39.6479 49.7769C38.7927 50.4677 37.6986 50.7913 36.6052 50.6769C36.5376 50.6722 36.4717 50.6538 36.4114 50.623C36.3511 50.5921 36.2977 50.5493 36.2543 50.4973C36.211 50.4452 36.1786 50.3849 36.1592 50.32C36.1398 50.2551 36.1337 50.1869 36.1414 50.1196L37.3598 38.1634L46.1002 33.9022H46.0275L48.4506 32.7011L48.5995 32.6284C49.1978 32.2714 49.8149 31.9467 50.4479 31.6557C51.7471 31.0525 53.1243 30.6342 54.5395 30.413C56.3045 30.1222 58.1052 30.1222 59.8703 30.413C63.6897 31.0793 67.6149 30.7867 71.2934 29.5615L72.8891 33.1061L79.4107 47.5857ZM83.4261 48.1949L73.4672 26.0618L81.0826 22.6557L91.0415 44.7853L83.4261 48.1949Z" fill="#77C5D5"/>
<path d="M94.9495 45.1869L83.3638 19.4538C83.2873 19.2825 83.1779 19.1279 83.0416 18.999C82.9054 18.8701 82.7451 18.7693 82.5699 18.7024C82.3946 18.6355 82.2079 18.6038 82.0204 18.6092C81.8329 18.6146 81.6483 18.6569 81.4772 18.7338L70.2722 23.7738C70.1008 23.8505 69.9462 23.9603 69.8173 24.0969C69.6885 24.2336 69.5879 24.3943 69.5213 24.5699C69.4547 24.7455 69.4235 24.9325 69.4294 25.1203C69.4353 25.308 69.4782 25.4927 69.5557 25.6638L69.9018 26.4426C66.8284 27.4099 63.5687 27.6306 60.393 27.0865C58.2649 26.7317 56.0929 26.7317 53.9649 27.0865C52.2596 27.3644 50.5979 27.8636 49.0218 28.5715C48.3295 28.9176 47.6095 29.2638 46.8791 29.7138L40.7729 32.708C39.8243 32.5195 38.8627 32.4037 37.8964 32.3618C34.6388 32.2651 31.4533 31.3802 28.6125 29.783L29.0798 29.1461C29.3008 28.8384 29.3906 28.4557 29.3296 28.0818C29.2686 27.708 29.0618 27.3737 28.7544 27.1522L18.761 19.9591C18.4528 19.738 18.0695 19.6481 17.6951 19.709C17.3207 19.77 16.9857 19.977 16.7637 20.2845L0.272863 43.1896C0.0518999 43.4972 -0.0379415 43.88 0.0230656 44.2538C0.0840728 44.6276 0.290941 44.962 0.598248 45.1834L10.5744 52.373C10.7264 52.4831 10.8986 52.562 11.0811 52.6054C11.2636 52.6488 11.4529 52.6557 11.6381 52.6258C11.8234 52.5959 12.0009 52.5298 12.1605 52.4311C12.3201 52.3325 12.4587 52.2034 12.5683 52.0511L13.046 51.3865C15.4538 53.5775 17.2999 56.3152 18.4287 59.3688C18.5221 59.618 18.626 59.8638 18.7333 60.1096L17.1617 62.2904C16.6617 62.9751 16.3511 63.7796 16.2612 64.6227C16.1714 65.4658 16.3054 66.3177 16.6497 67.0924C16.9941 67.8672 17.5367 68.5375 18.2228 69.0357C18.9089 69.5339 19.7142 69.8423 20.5575 69.93C20.5593 70.177 20.5802 70.4235 20.6198 70.6673C20.8038 71.8033 21.3842 72.8375 22.2579 73.5864C23.1317 74.3354 24.2425 74.7507 25.3933 74.7588C25.5274 74.7588 25.6614 74.7519 25.7948 74.7381C26.0603 75.7822 26.6642 76.7089 27.5122 77.3734C28.3602 78.0379 29.4045 78.4027 30.4818 78.4108C30.992 78.408 31.4988 78.3263 31.9841 78.1685C32.3731 79.0063 32.9923 79.7164 33.7694 80.2158C34.5465 80.7153 35.4495 80.9837 36.3733 80.9896C36.6426 80.9895 36.9114 80.9651 37.1764 80.9169C37.8077 80.8214 38.4132 80.5996 38.9568 80.2648C39.5004 79.9299 39.9709 79.4889 40.3402 78.9681L41.2991 77.6388L45.941 80.3077C46.7441 80.7602 47.65 80.9986 48.5718 81C49.2934 80.9971 50.0068 80.8467 50.6682 80.558C51.3295 80.2693 51.9248 79.8484 52.4176 79.3211C52.9637 78.7019 53.3489 77.9577 53.5391 77.1542C54.4984 77.4585 55.5157 77.5332 56.5091 77.3723C57.32 77.2418 58.0971 76.9523 58.7957 76.5205C59.4944 76.0886 60.1007 75.5228 60.5799 74.8558C61.2155 73.9652 61.6102 72.9254 61.7256 71.8373C61.7782 71.3593 61.77 70.8767 61.7014 70.4007C62.5579 70.3649 63.3972 70.1491 64.1648 69.7674C64.9324 69.3857 65.611 68.8467 66.1564 68.1854C67.0904 67.0644 67.5991 65.6498 67.593 64.1907C67.9507 64.1908 68.3081 64.1665 68.6626 64.118C69.3194 64.0133 69.9486 63.7784 70.5133 63.4271C71.078 63.0758 71.5668 62.6152 71.951 62.0723C72.6092 61.1441 73.0202 60.0636 73.1453 58.9327C73.1453 58.8461 73.1453 58.7596 73.1453 58.6765C73.4499 58.2646 73.7476 57.8319 74.0314 57.3992C75.7239 54.6623 78.0481 52.3712 80.8091 50.7184L81.1138 51.4107C81.2694 51.7563 81.556 52.0259 81.9104 52.1603C82.2648 52.2947 82.6581 52.2828 83.0038 52.1273L94.2261 47.0907C94.3995 47.0143 94.556 46.9042 94.6865 46.7668C94.817 46.6294 94.9189 46.4673 94.9862 46.2902C95.0536 46.113 95.085 45.9243 95.0787 45.7348C95.0724 45.5454 95.0285 45.3592 94.9495 45.1869ZM18.4044 23.8707L25.1717 28.7411L11.3429 47.9284L10.9967 48.4373L4.20864 43.5669L18.4044 23.8707ZM19.9379 64.2877L20.426 63.6196L22.2017 61.1965C22.3208 61.0321 22.4735 60.895 22.6497 60.7942C22.8258 60.6934 23.0215 60.6313 23.2235 60.612C23.4255 60.5926 23.6294 60.6166 23.8215 60.6821C24.0135 60.7477 24.1895 60.8534 24.3375 60.9923C24.4908 61.1448 24.6083 61.3296 24.6813 61.5331C24.7544 61.7367 24.7812 61.954 24.7598 62.1692C24.7367 62.4104 24.6521 62.6416 24.5141 62.8407L22.2121 66.0357C21.9828 66.3237 21.6517 66.5126 21.2871 66.5634C20.9225 66.6143 20.5523 66.5233 20.2529 66.3092C19.9476 66.0795 19.7439 65.7398 19.6851 65.3624C19.6263 64.9849 19.717 64.5993 19.9379 64.2877ZM24.5798 71.0827C24.2698 70.8632 24.0593 70.5298 23.9944 70.1555C23.9295 69.7812 24.0155 69.3964 24.2337 69.0854L27.2798 64.8554H27.3006L29.2737 62.1277C29.3808 61.9733 29.5178 61.842 29.6765 61.7416C29.8353 61.6411 30.0126 61.5734 30.1979 61.5427C30.3841 61.5081 30.5753 61.512 30.7599 61.5543C30.9445 61.5966 31.1184 61.6763 31.271 61.7884C31.4482 61.9173 31.5934 62.0851 31.6954 62.2789C31.7975 62.4728 31.8536 62.6875 31.8594 62.9065C31.8594 62.9619 31.8594 63.0207 31.8594 63.0796C31.8368 63.2742 31.7731 63.4618 31.6725 63.63C31.6448 63.668 31.6171 63.6992 31.5894 63.7338L26.5598 70.7157C26.5356 70.7504 26.5148 70.785 26.4941 70.8196C26.2661 71.1011 25.9393 71.285 25.5804 71.3339C25.2215 71.3828 24.8575 71.293 24.5625 71.0827H24.5798ZM29.696 74.7346C29.5347 74.6311 29.3966 74.4951 29.2905 74.3354C29.1845 74.1757 29.1127 73.9958 29.0798 73.8069C29.0206 73.4749 29.0846 73.1328 29.2598 72.8446C29.2875 72.81 29.3187 72.7754 29.3464 72.7373L34.376 65.7727C34.4198 65.7112 34.4684 65.6533 34.5214 65.5996C34.5763 65.5497 34.6354 65.5046 34.6979 65.4646C34.729 65.443 34.7613 65.4233 34.7948 65.4057C34.8426 65.3769 34.8924 65.3515 34.9437 65.3296L34.9956 65.3088C35.0799 65.2773 35.1668 65.253 35.2552 65.2361C35.3444 65.2209 35.4348 65.2139 35.5252 65.2154H35.5702C35.764 65.225 35.9538 65.2743 36.1278 65.3601C36.3018 65.446 36.4563 65.5666 36.5818 65.7145C36.7074 65.8624 36.8013 66.0345 36.8577 66.2202C36.9141 66.4058 36.9319 66.601 36.9098 66.7938C36.8836 67.0446 36.7903 67.2838 36.6398 67.4861L34.8606 69.9473C34.7948 70.0269 34.7291 70.1031 34.6668 70.1861L32.4271 73.3015C32.3357 73.4271 32.2514 73.5577 32.1744 73.6927L31.6483 74.4196C31.4247 74.7169 31.0944 74.9159 30.7271 74.9747C30.3597 75.0334 29.9839 74.9474 29.6787 74.7346H29.696ZM36.6571 77.5592C36.3777 77.606 36.0907 77.5691 35.8322 77.4532C35.5737 77.3373 35.3553 77.1475 35.2043 76.9078C35.0534 76.6681 34.9767 76.389 34.9839 76.1058C34.9911 75.8226 35.0819 75.5479 35.2448 75.3161L37.4845 72.2007C37.7067 71.8935 38.0391 71.6839 38.4122 71.6158C38.5013 71.6002 38.5917 71.5933 38.6822 71.595H38.7514C38.8129 71.5985 38.8741 71.6054 38.9348 71.6158L39.0075 71.6331C39.1773 71.6789 39.3377 71.7538 39.4818 71.8546C39.6858 72.0027 39.8473 72.2019 39.95 72.4322C40.0527 72.6625 40.093 72.9157 40.0668 73.1665C40.0387 73.4163 39.9469 73.6547 39.8002 73.8588L38.7029 75.3923L37.5814 76.9535C37.4742 77.1134 37.3353 77.2497 37.1734 77.3539C37.0114 77.4581 36.8298 77.528 36.6398 77.5592H36.6571ZM69.6976 58.59C69.6488 59.1267 69.455 59.64 69.1368 60.075C68.8768 60.4222 68.4944 60.6573 68.0672 60.7327C67.855 60.7691 67.6376 60.7621 67.4282 60.7121C67.2187 60.6622 67.0216 60.5702 66.8487 60.4419L65.1803 59.2442C65.111 59.1711 65.0358 59.1039 64.9553 59.0434L61.2306 56.3642C60.8625 56.1296 60.4186 56.0446 59.9899 56.1267C59.5611 56.2089 59.18 56.4519 58.9247 56.8059C58.6693 57.16 58.559 57.5983 58.6164 58.031C58.6738 58.4638 58.8945 58.8582 59.2333 59.1334L62.9545 61.8092L62.9372 61.8369C63.2569 62.0615 63.5259 62.3508 63.7268 62.6859C63.9277 63.0209 64.0561 63.3945 64.1037 63.7823C64.1542 64.172 64.124 64.5679 64.0151 64.9454C63.9061 65.323 63.7207 65.674 63.4703 65.9769C62.9748 66.5287 62.2918 66.8765 61.5541 66.9527C60.8164 67.0288 60.0768 66.8278 59.4791 66.3888L59.3753 66.3127C59.2968 66.2235 59.2085 66.1433 59.1122 66.0738L54.5118 62.7611C54.1437 62.5265 53.6998 62.4416 53.271 62.5237C52.8423 62.6058 52.4612 62.8488 52.2058 63.2028C51.9505 63.5569 51.8402 63.9952 51.8976 64.4279C51.955 64.8607 52.1757 65.2551 52.5145 65.5304L57.1183 68.8534L57.146 68.8811C57.5418 69.1823 57.8544 69.5793 58.0542 70.0348C58.2541 70.4902 58.3346 70.989 58.2883 71.4842C58.2397 71.9801 58.0606 72.4543 57.7692 72.8585C57.4779 73.2627 57.0847 73.5826 56.6296 73.7855C56.1745 73.9884 55.6738 74.0672 55.1783 74.0138C54.6829 73.9604 54.2105 73.7768 53.8091 73.4815L51.5695 71.8511L47.2114 68.7081C47.0307 68.5612 46.8219 68.4529 46.5978 68.3896C46.3738 68.3263 46.1392 68.3095 45.9083 68.3401C45.6775 68.3707 45.4554 68.4481 45.2556 68.5676C45.0558 68.6871 44.8824 68.8461 44.7462 69.035C44.61 69.2238 44.5138 69.4384 44.4635 69.6658C44.4132 69.8931 44.4099 70.1283 44.4537 70.357C44.4975 70.5856 44.5875 70.803 44.7183 70.9956C44.849 71.1882 45.0177 71.3522 45.2141 71.4773L49.5722 74.6169C49.7557 74.7514 49.909 74.9229 50.0223 75.1202C50.1355 75.3175 50.2063 75.5364 50.2299 75.7627C50.2656 75.9935 50.249 76.2293 50.1813 76.4528C50.1136 76.6763 49.9965 76.8817 49.8387 77.0538C49.5631 77.3404 49.1972 77.5233 48.8026 77.5719C48.4079 77.6204 48.0086 77.5316 47.6718 77.3204L43.1925 74.7415C43.2576 74.5715 43.3097 74.3967 43.3483 74.2188C43.4087 73.9818 43.455 73.7414 43.4868 73.4988C43.5991 72.3768 43.318 71.2506 42.6916 70.3129C42.0652 69.3752 41.1325 68.6843 40.0529 68.3584C40.2125 67.9444 40.3184 67.5117 40.3679 67.0707C40.4497 66.2226 40.3088 65.3678 39.9591 64.5907C39.6094 63.8137 39.0631 63.1413 38.3741 62.64C37.4408 61.9701 36.2999 61.6536 35.1548 61.7469C34.8607 60.5683 34.1346 59.5431 33.1204 58.8744C32.1062 58.2058 30.8779 57.9424 29.6787 58.1365C28.8241 58.2638 28.0207 58.623 27.356 59.175L27.3179 59.2061C27.007 58.7584 26.6204 58.3684 26.1756 58.0534C25.6621 57.6782 25.0789 57.4093 24.4601 57.2625C23.8413 57.1157 23.1994 57.0939 22.5721 57.1984C22.1389 57.2741 21.7175 57.4068 21.319 57.593C19.9377 54.1683 17.7785 51.1119 15.0121 48.6657L26.5737 32.6145C28.9057 33.9943 31.4681 34.9407 34.1371 35.408L32.6764 49.7976C32.6213 50.311 32.6684 50.8302 32.815 51.3252C32.9615 51.8203 33.2047 52.2814 33.5303 52.6821C33.856 53.0827 34.2577 53.4149 34.7124 53.6595C35.1671 53.9041 35.6657 54.0563 36.1795 54.1073C37.6643 54.2695 39.1634 53.9774 40.4787 53.2696C40.9314 53.0324 41.3593 52.7506 41.756 52.4284C42.5355 51.8095 43.1824 51.04 43.6581 50.1658C44.1339 49.2916 44.4288 48.3306 44.5252 47.3399L44.9129 43.5876C46.6286 43.51 48.3075 43.0637 49.8352 42.2792C50.0499 42.1719 50.261 42.0542 50.4687 41.933L68.5068 55.8588C68.628 55.9557 68.7283 56.0284 68.7768 56.0769L68.801 56.1011C68.8253 56.1253 68.8737 56.1496 68.898 56.198L68.9464 56.2465C68.9707 56.2465 68.9707 56.2707 68.9949 56.295L69.0434 56.3434L69.116 56.4161L69.1887 56.513C69.213 56.5373 69.2372 56.5892 69.2614 56.6134C69.3185 56.6973 69.3672 56.7866 69.4068 56.88L69.431 56.9284C69.4587 56.9769 69.4587 57.0011 69.483 57.0496C69.5072 57.098 69.5072 57.1465 69.5314 57.195C69.5557 57.2434 69.5557 57.2953 69.5799 57.3438L69.6283 57.4892C69.662 57.6024 69.6864 57.7182 69.701 57.8353V57.8838C69.7229 57.9387 69.7313 57.9981 69.7253 58.0569V58.2023C69.7383 58.3332 69.7229 58.4655 69.6803 58.59H69.6976ZM79.4107 47.5857C76.4571 49.2958 73.9116 51.6287 71.951 54.4223V54.4015C71.9026 54.3288 71.8299 54.2561 71.7814 54.1834C71.733 54.1107 71.6118 53.9896 71.5114 53.8926L71.2691 53.6469C71.0848 53.4654 70.8894 53.2955 70.6841 53.138L50.6072 37.6511L49.5687 38.4299C47.8515 39.7352 45.7013 40.3368 43.556 40.1122L41.8495 39.9392L41.1572 46.9765C41.038 48.0709 40.4965 49.0756 39.6479 49.7769C38.7927 50.4677 37.6986 50.7913 36.6052 50.6769C36.5376 50.6722 36.4717 50.6538 36.4114 50.623C36.3511 50.5921 36.2977 50.5493 36.2543 50.4973C36.211 50.4452 36.1786 50.3849 36.1592 50.32C36.1398 50.2551 36.1337 50.1869 36.1414 50.1196L37.3598 38.1634L46.1002 33.9022H46.0275L48.4506 32.7011L48.5995 32.6284C49.1978 32.2714 49.8149 31.9467 50.4479 31.6557C51.7471 31.0525 53.1243 30.6342 54.5395 30.413C56.3045 30.1222 58.1052 30.1222 59.8703 30.413C63.6897 31.0793 67.6149 30.7867 71.2934 29.5615L72.8891 33.1061L79.4107 47.5857ZM83.4261 48.1949L73.4672 26.0618L81.0826 22.6557L91.0415 44.7853L83.4261 48.1949Z" stroke="#77C5D5" mask="url(#path-2-outside-1_0_1)"/>
</g>
<defs>
<clipPath id="clip0_0_1">
<rect width="1280" height="8415" fill="white" transform="translate(-800 -3393)"/>
</clipPath>
</defs>
</svg>
